<svg width="64" height="65" viewBox="0 0 64 65" fill="none" xmlns="http://www.w3.org/2000/svg">
<path d="M37.2956 49.2129C41.8697 49.2129 45.7401 47.5636 48.9068 44.265C52.0734 40.9664 53.6568 37.0155 53.6568 32.4124C53.6568 27.7064 51.9672 23.759 48.5881 20.5704C45.209 17.3817 41.1517 15.7874 36.4162 15.7874C34.0707 15.7874 31.8496 16.0658 29.753 16.6226C27.6564 17.1799 25.5086 18.045 23.3095 19.218L30.8304 22.0765C32.927 22.8827 34.4261 24.0665 35.3277 25.6278C36.2293 27.1892 36.6801 28.9522 36.6801 30.9168C36.6801 33.5557 35.7895 35.7768 34.0083 37.58C32.227 39.3833 30.0537 40.2849 27.4882 40.2849H9.98314C9.80722 41.311 9.712 42.6122 9.69748 44.1884C9.68297 45.7643 9.67571 47.4391 9.67571 49.2129H37.2956ZM10.5993 35.8865H27.1801C28.661 35.8865 29.8815 35.4064 30.8416 34.4463C31.8017 33.4862 32.2818 32.3097 32.2818 30.9168C32.2818 29.7878 32.0069 28.8165 31.4571 28.0028C30.9073 27.1892 30.1122 26.5919 29.0715 26.211L19.0438 22.0765C16.9617 23.9092 15.2207 25.9764 13.8207 28.2779C12.4208 30.5795 11.347 33.1157 10.5993 35.8865ZM37.2956 53.6113H9.67571C8.48821 53.6113 7.45817 53.1752 6.58557 52.303C5.71342 51.4304 5.27734 50.4004 5.27734 49.2129V43.9351C5.27734 39.332 6.07627 35.0476 7.67411 31.0817C9.2724 27.1159 11.468 23.6781 14.2608 20.7683C17.0536 17.8581 20.3485 15.5673 24.1454 13.896C27.9423 12.2247 32.0326 11.389 36.4162 11.389C39.3775 11.389 42.1703 11.9315 44.7947 13.0166C47.4191 14.1012 49.7134 15.5928 51.6776 17.4915C53.6422 19.3901 55.1963 21.615 56.3399 24.1659C57.4834 26.7168 58.0551 29.4656 58.0551 32.4124C58.0551 35.3152 57.5126 38.0603 56.4276 40.6477C55.343 43.2351 53.8586 45.4855 51.9745 47.3987C50.0907 49.3119 47.8917 50.8257 45.3772 51.9402C42.8633 53.0542 40.1694 53.6113 37.2956 53.6113Z" fill="#9699A1"/>
</svg>
