<svg width="56" height="54" viewBox="0 0 56 54" fill="none" xmlns="http://www.w3.org/2000/svg">
<path d="M42.0903 53.1112H12.887V19.1572L31.2708 0.333374L34.0859 2.79612C34.3643 3.04549 34.5804 3.39009 34.7344 3.8299C34.8883 4.26972 34.9653 4.76077 34.9653 5.30306V6.05119L32.019 19.1572H50.8428C52.0158 19.1572 53.0421 19.597 53.9217 20.4767C54.8014 21.3563 55.2412 22.3826 55.2412 23.5556V28.9145C55.2412 29.2268 55.2484 29.5516 55.263 29.8889C55.2775 30.2263 55.2262 30.5489 55.1092 30.8567L46.9287 49.8125C46.5364 50.7287 45.8826 51.5076 44.9673 52.1493C44.0521 52.7905 43.0931 53.1112 42.0903 53.1112ZM17.2847 48.7128H42.6623L50.8428 29.4054V23.5556H26.5208L30.0398 7.76646L17.2847 21.0045V48.7128ZM12.887 19.1572V23.5556H4.39837V48.7128H12.887V53.1112H0V19.1572H12.887Z" fill="#9699A1"/>
</svg>
