<svg width="40" height="41" viewBox="0 0 40 41" fill="none" xmlns="http://www.w3.org/2000/svg">
<path d="M12.584 27.9167L23.9727 24.5L27.3894 13.1113L16.0007 16.528L12.584 27.9167ZM19.994 22.4446C19.452 22.4446 18.9936 22.2549 18.6186 21.8755C18.2436 21.496 18.0561 21.0353 18.0561 20.4934C18.0561 19.9514 18.2458 19.493 18.6252 19.118C19.0047 18.743 19.4654 18.5555 20.0073 18.5555C20.5493 18.5555 21.0077 18.7452 21.3827 19.1246C21.7577 19.5041 21.9452 19.9648 21.9452 20.5067C21.9452 21.0487 21.7555 21.5071 21.3761 21.8821C20.9966 22.2571 20.5359 22.4446 19.994 22.4446ZM20.0082 37.1667C17.7073 37.1667 15.5452 36.7292 13.5219 35.8542C11.4986 34.9792 9.73218 33.7871 8.22273 32.278C6.71357 30.7685 5.52148 29.0014 4.64648 26.9767C3.77148 24.952 3.33398 22.7885 3.33398 20.4863C3.33398 18.1841 3.77148 16.0205 4.64648 13.9955C5.52148 11.9707 6.71357 10.2084 8.22273 8.70837C9.73218 7.20837 11.4993 6.02087 13.524 5.14587C15.5487 4.27087 17.7122 3.83337 20.0144 3.83337C22.3166 3.83337 24.4802 4.27087 26.5052 5.14587C28.53 6.02087 30.2923 7.20837 31.7923 8.70837C33.2923 10.2084 34.4798 11.9723 35.3548 14C36.2298 16.0278 36.6673 18.192 36.6673 20.4925C36.6673 22.7934 36.2298 24.9555 35.3548 26.9788C34.4798 29.0021 33.2923 30.7667 31.7923 32.2725C30.2923 33.7784 28.5284 34.9706 26.5007 35.8492C24.4729 36.7275 22.3087 37.1667 20.0082 37.1667ZM20.014 34.3888C23.8662 34.3888 27.1419 33.0348 29.8411 30.3267C32.54 27.6187 33.8894 24.3387 33.8894 20.4867C33.8894 16.6345 32.54 13.3588 29.8411 10.6596C27.1419 7.96074 23.8662 6.61129 20.014 6.61129C16.162 6.61129 12.882 7.96074 10.174 10.6596C7.46593 13.3588 6.1119 16.6345 6.1119 20.4867C6.1119 24.3387 7.46593 27.6187 10.174 30.3267C12.882 33.0348 16.162 34.3888 20.014 34.3888Z" fill="#9699A1"/>
</svg>
