<svg width="64" height="64" viewBox="0 0 64 64" fill="none" xmlns="http://www.w3.org/2000/svg">
<g clip-path="url(#clip0_1_2071)">
<path d="M10.4236 50.4722C7.5503 50.4722 5.09459 49.4606 3.05649 47.4374C1.01883 45.4143 0 42.9513 0 40.0485C0 37.2777 0.934606 34.9027 2.80382 32.9235C4.67303 30.9444 6.97832 29.8741 9.71969 29.7127L7.03726 27.6016H0V24.0833H11.9192L18.4722 28.0416L28.9836 24.0833H37.9123L33.1181 17.9261H26.9167V13.5277H35.2734L40.9028 20.7847L49.5234 16.4747V23.6874H43.19L48.4678 30.5485C49.186 30.2552 49.908 30.0353 50.6337 29.8888C51.3594 29.7424 52.1033 29.6691 52.8655 29.6691C55.7683 29.6691 58.2387 30.6807 60.2768 32.7039C62.3145 34.727 63.3333 37.19 63.3333 40.0927C63.3333 42.9955 62.3145 45.451 60.2768 47.4592C58.2387 49.4678 55.7683 50.4722 52.8655 50.4722C49.9922 50.4722 47.544 49.4606 45.5208 47.4374C43.4977 45.4143 42.4861 42.9661 42.4861 40.0927C42.4861 38.8173 42.7023 37.5968 43.1346 36.4313C43.5674 35.2658 44.2016 34.1992 45.0373 33.2316L43.0581 30.7247L33.6458 45.0182H26.1692L20.8472 40.2682C20.7738 43.127 19.733 45.5425 17.7248 47.5146C15.7161 49.4863 13.2824 50.4722 10.4236 50.4722ZM10.4236 46.0738C12.1094 46.0738 13.5351 45.4838 14.7006 44.3038C15.8661 43.1237 16.4489 41.7053 16.4489 40.0485C16.4489 38.3918 15.8661 36.9734 14.7006 35.7933C13.5351 34.6133 12.1094 34.0233 10.4236 34.0233C8.76683 34.0233 7.34843 34.6061 6.1684 35.7716C4.98838 36.9371 4.39837 38.3627 4.39837 40.0485C4.39837 41.7344 4.98838 43.16 6.1684 44.3255C7.34843 45.491 8.76683 46.0738 10.4236 46.0738ZM52.8655 46.0738C54.5518 46.0738 55.9849 45.491 57.1649 44.3255C58.345 43.16 58.935 41.7491 58.935 40.0927C58.935 38.4065 58.345 36.9734 57.1649 35.7933C55.9849 34.6133 54.5518 34.0233 52.8655 34.0233C51.2092 34.0233 49.7983 34.6133 48.6327 35.7933C47.4672 36.9734 46.8845 38.4065 46.8845 40.0927C46.8845 41.7491 47.4672 43.16 48.6327 44.3255C49.7983 45.491 51.2092 46.0738 52.8655 46.0738ZM31.315 40.6205L39.2752 28.4816H29.8194L19.0442 32.5277L27.7961 40.6205H31.315Z" fill="#9699A1"/>
</g>
<defs>
<clipPath id="clip0_1_2071">
<rect width="63.3333" height="63.3333" fill="white" transform="translate(0 0.333374)"/>
</clipPath>
</defs>
</svg>
