<svg width="776" height="194" viewBox="0 0 776 194" fill="none" xmlns="http://www.w3.org/2000/svg">
<path d="M254.507 43.9212L225.998 96.9589L213.041 100.481H273.676L256.183 115.381H183.789L222.205 43.9212H254.507Z" fill="white"/>
<path d="M279.717 115.378L290.267 95.8476V43.921H322.573L319.797 66.969L312.208 79.6474L345.99 43.921H378.293L322.573 95.8476L312.113 115.378H279.717Z" fill="white"/>
<path d="M368.309 62.758L387.428 43.9249H472.678L464.719 63.3569H432.416L433.43 58.8219C420.288 58.8219 407.609 58.8219 394.283 58.9161L410.385 61.9746L409.922 62.6224L459.073 77.0637L451.668 96.684L438.707 115.381H355.031L359.107 96.684L363.178 89.0038H395.481L391.778 95.9457L390.761 100.481C398.34 100.481 413.173 100.466 413.173 100.466L422.695 88.3522L368.309 73.1577V62.758Z" fill="white"/>
<path d="M509.324 61.9708L488.498 100.756H510.989L516.175 97.3318L517.75 94.4617L519.784 90.6649H551.996L545.148 103.441L526.824 115.381H460.271L454.806 103.626H454.625L454.715 103.441L486.743 43.9212H561.898L567.454 55.8614L562.825 64.3815H530.613L531.908 61.8804L530.432 58.5507C517.565 58.5507 504.879 58.6374 491.926 58.7353L509.324 61.9708Z" fill="white"/>
<path d="M617.71 43.9212L602.531 72.2499H631.779L646.958 43.9212H679.265L640.849 115.381H608.546L623.73 87.0565H594.478V87.1507L575.227 87.2411L592.625 90.5783L579.298 115.381H546.992L585.408 43.9212H617.71Z" fill="white"/>
<path d="M677.191 115.378L687.742 95.8476V43.921H720.048L717.272 66.969L709.678 79.6474L743.465 43.921H775.768L720.048 95.8476L709.588 115.378H677.191Z" fill="white"/>
<path d="M56.7818 63.4943L88.2218 50.6539L137.512 0.584282H69.9122L0 70.4965L16.9008 111.297H39.8094L63.4336 98.1209L107.541 63.4943H56.7818Z" fill="white"/>
<path d="M8.83008 193.584L148.165 112.119L111.233 68.5093L70.113 101.332L8.83008 193.584Z" fill="white"/>
</svg>
