<svg width="510" height="128" viewBox="0 0 510 128" fill="none" xmlns="http://www.w3.org/2000/svg">
<path d="M167.532 29.3246L148.835 64.1069L140.338 66.4165H180.102L168.631 76.1885H121.154L146.347 29.3246H167.532Z" fill="black"/>
<path d="M184.064 76.1865L190.983 63.3787V29.3251H212.17L210.349 44.44L205.372 52.7546L227.527 29.3251H248.711L212.17 63.3787L205.31 76.1865H184.064Z" fill="black"/>
<path d="M242.162 41.6779L254.701 29.3271H310.608L305.389 42.0706H284.205L284.869 39.0965C276.251 39.0965 267.936 39.0965 259.197 39.1583L269.757 41.1641L269.453 41.5889L301.686 51.0595L296.829 63.9266L288.33 76.1885H233.455L236.128 63.9266L238.798 58.8899H259.982L257.554 63.4424L256.887 66.4165C261.857 66.4165 271.584 66.4066 271.584 66.4066L277.829 58.4626L242.162 48.498V41.6779Z" fill="black"/>
<path d="M334.641 41.1606L320.984 66.5959H335.733L339.134 64.3505L340.167 62.4682L341.501 59.9783H362.626L358.135 68.3571L346.118 76.1875H302.472L298.888 68.4781H298.77L298.829 68.3571L319.833 29.3236H369.12L372.763 37.154L369.727 42.7415H348.603L349.452 41.1013L348.484 38.9177C340.046 38.9177 331.726 38.9745 323.232 39.0387L334.641 41.1606Z" fill="black"/>
<path d="M405.721 29.3246L395.766 47.9027H414.947L424.902 29.3246H446.088L420.895 76.1885H399.711L409.668 57.6129H390.485V57.6746L377.86 57.7339L389.27 59.9225L380.53 76.1885H359.344L384.537 29.3246H405.721Z" fill="black"/>
<path d="M444.73 76.1865L451.649 63.3787V29.3251H472.836L471.015 44.44L466.036 52.7546L488.193 29.3251H509.377L472.836 63.3787L465.976 76.1865H444.73Z" fill="black"/>
<path d="M37.8627 42.16L58.4811 33.7392L90.8056 0.903343H46.4736L0.625 46.752L11.7086 73.5088H26.7321L42.225 64.8682L71.1505 42.16H37.8627Z" fill="black"/>
<path d="M6.41602 127.474L97.7922 74.049L73.5723 45.4495L46.6055 66.9744L6.41602 127.474Z" fill="black"/>
</svg>
