<svg display="none" xmlns="http://www.w3.org/2000/svg">
    <symbol id="phone-icon" viewBox="0 0 24 24">
        <path
            d="M19.95 21C17.8667 21 15.8083 20.5458 13.775 19.6375C11.7417 18.7292 9.89167 17.4417 8.225 15.775C6.55833 14.1083 5.27083 12.2583 4.3625 10.225C3.45417 8.19167 3 6.13333 3 4.05C3 3.75 3.1 3.5 3.3 3.3C3.5 3.1 3.75 3 4.05 3H8.1C8.33333 3 8.54167 3.07917 8.725 3.2375C8.90833 3.39583 9.01667 3.58333 9.05 3.8L9.7 7.3C9.73333 7.56667 9.725 7.79167 9.675 7.975C9.625 8.15833 9.53333 8.31667 9.4 8.45L6.975 10.9C7.30833 11.5167 7.70417 12.1125 8.1625 12.6875C8.62083 13.2625 9.125 13.8167 9.675 14.35C10.1917 14.8667 10.7333 15.3458 11.3 15.7875C11.8667 16.2292 12.4667 16.6333 13.1 17L15.45 14.65C15.6 14.5 15.7958 14.3875 16.0375 14.3125C16.2792 14.2375 16.5167 14.2167 16.75 14.25L20.2 14.95C20.4333 15.0167 20.625 15.1375 20.775 15.3125C20.925 15.4875 21 15.6833 21 15.9V19.95C21 20.25 20.9 20.5 20.7 20.7C20.5 20.9 20.25 21 19.95 21ZM6.025 9L7.675 7.35L7.25 5H5.025C5.10833 5.68333 5.225 6.35833 5.375 7.025C5.525 7.69167 5.74167 8.35 6.025 9ZM14.975 17.95C15.625 18.2333 16.2875 18.4583 16.9625 18.625C17.6375 18.7917 18.3167 18.9 19 18.95V16.75L16.65 16.275L14.975 17.95Z" />
    </symbol>

    <symbol id="whtsapp-icon" viewBox="0 0 24 24">
        <path
            d="M19.95 21C17.8667 21 15.8083 20.5458 13.775 19.6375C11.7417 18.7292 9.89167 17.4417 8.225 15.775C6.55833 14.1083 5.27083 12.2583 4.3625 10.225C3.45417 8.19167 3 6.13333 3 4.05C3 3.75 3.1 3.5 3.3 3.3C3.5 3.1 3.75 3 4.05 3H8.1C8.33333 3 8.54167 3.07917 8.725 3.2375C8.90833 3.39583 9.01667 3.58333 9.05 3.8L9.7 7.3C9.73333 7.56667 9.725 7.79167 9.675 7.975C9.625 8.15833 9.53333 8.31667 9.4 8.45L6.975 10.9C7.30833 11.5167 7.70417 12.1125 8.1625 12.6875C8.62083 13.2625 9.125 13.8167 9.675 14.35C10.1917 14.8667 10.7333 15.3458 11.3 15.7875C11.8667 16.2292 12.4667 16.6333 13.1 17L15.45 14.65C15.6 14.5 15.7958 14.3875 16.0375 14.3125C16.2792 14.2375 16.5167 14.2167 16.75 14.25L20.2 14.95C20.4333 15.0167 20.625 15.1375 20.775 15.3125C20.925 15.4875 21 15.6833 21 15.9V19.95C21 20.25 20.9 20.5 20.7 20.7C20.5 20.9 20.25 21 19.95 21ZM6.025 9L7.675 7.35L7.25 5H5.025C5.10833 5.68333 5.225 6.35833 5.375 7.025C5.525 7.69167 5.74167 8.35 6.025 9ZM14.975 17.95C15.625 18.2333 16.2875 18.4583 16.9625 18.625C17.6375 18.7917 18.3167 18.9 19 18.95V16.75L16.65 16.275L14.975 17.95Z" />
    </symbol>

    <symbol id="telegram-icon" viewBox="0 0 18 18">
        <path
            d="M0.843136 8.92394L5.00091 10.1808C7.94596 8.33739 13.888 4.62534 14.0959 4.52479C14.3558 4.3991 14.7456 4.14772 14.8755 4.27341C14.9795 4.37396 14.7456 4.65048 14.6156 4.77617L7.20961 11.312L6.81982 15.3341C7.03637 15.3341 7.59941 15.2084 8.11913 14.7057L9.80822 13.0717C10.6744 13.7421 12.6147 15.2336 13.4463 15.8369C14.4857 16.591 15.0054 16.0883 15.2653 15.0827C15.5252 14.0772 16.6945 8.42118 17.2143 6.03307C17.734 3.64496 18.2537 2.13668 17.8639 1.8853C17.5521 1.6842 16.6945 1.8853 16.3047 2.01099C11.6706 3.72876 2.06448 7.28997 0.713205 7.79273C-0.638071 8.29549 0.236794 8.75635 0.843136 8.92394Z" />
    </symbol>

    <symbol id="callback-icon" viewBox="0 0 24 24">
        <path
            d="M13 11V5.00001H15V7.60001L20 2.60001L21.4 4.00001L16.4 9.00001H19V11H13ZM19.95 21C17.8667 21 15.8083 20.5458 13.775 19.6375C11.7417 18.7292 9.89167 17.4417 8.225 15.775C6.55833 14.1083 5.27083 12.2583 4.3625 10.225C3.45417 8.19167 3 6.13334 3 4.05001C3 3.75001 3.1 3.50001 3.3 3.30001C3.5 3.10001 3.75 3.00001 4.05 3.00001H8.1C8.33333 3.00001 8.54167 3.07917 8.725 3.23751C8.90833 3.39584 9.01667 3.58334 9.05 3.80001L9.7 7.30001C9.73333 7.56667 9.725 7.79167 9.675 7.97501C9.625 8.15834 9.53333 8.31667 9.4 8.45001L6.975 10.9C7.30833 11.5167 7.70417 12.1125 8.1625 12.6875C8.62083 13.2625 9.125 13.8167 9.675 14.35C10.1917 14.8667 10.7333 15.3458 11.3 15.7875C11.8667 16.2292 12.4667 16.6333 13.1 17L15.45 14.65C15.6 14.5 15.7958 14.3875 16.0375 14.3125C16.2792 14.2375 16.5167 14.2167 16.75 14.25L20.2 14.95C20.4333 15.0167 20.625 15.1375 20.775 15.3125C20.925 15.4875 21 15.6833 21 15.9V19.95C21 20.25 20.9 20.5 20.7 20.7C20.5 20.9 20.25 21 19.95 21ZM6.025 9.00001L7.675 7.35001L7.25 5.00001H5.025C5.10833 5.68334 5.225 6.35834 5.375 7.02501C5.525 7.69167 5.74167 8.35001 6.025 9.00001ZM14.975 17.95C15.625 18.2333 16.2875 18.4583 16.9625 18.625C17.6375 18.7917 18.3167 18.9 19 18.95V16.75L16.65 16.275L14.975 17.95Z" />
    </symbol>

    <symbol id="arrow-bottom" viewBox="0 0 23 22">
        <path d="M11.0834 0.083374V19.0834M11.0834 19.0834L2 10M11.0834 19.0834L20.6665 9.50024" stroke-width="4" />
    </symbol>

    <symbol id="arrow-right" viewBox="0 0 14 26">
        <path d="M1.58398 24.2492L11.5477 14.2854C12.1661 13.6671 12.1661 12.6646 11.5477 12.0463L1.58398 2.08252"
            stroke-width="3.16667" stroke-linecap="round" />
        <path d="M1.58398 24.2492L11.5477 14.2854C12.1661 13.6671 12.1661 12.6646 11.5477 12.0463L1.58398 2.08252"
            stroke-opacity="0.2" stroke-width="3.16667" stroke-linecap="round" />
    </symbol>

    <symbol id="arrow-left" viewBox="0 0 14 26">
        <path d="M12.084 24.2492L2.12024 14.2854C1.50191 13.6671 1.50191 12.6646 2.12024 12.0463L12.084 2.08252"
            stroke-width="3.16667" stroke-linecap="round" />
        <path d="M12.084 24.2492L2.12024 14.2854C1.50191 13.6671 1.50191 12.6646 2.12024 12.0463L12.084 2.08252"
            stroke-opacity="0.2" stroke-width="3.16667" stroke-linecap="round" />
    </symbol>

    <symbol id="play-icon" viewBox="0 0 32 36">
        <path d="M31.9219 18L0.744959 36L0.744961 -1.42619e-06L31.9219 18Z" />
    </symbol>

</svg>